<svg width="112" height="115" viewBox="0 0 112 115" fill="none" xmlns="http://www.w3.org/2000/svg">
<path fill-rule="evenodd" clip-rule="evenodd" d="M51.7044 26.0398L58.2145 19.355C63.4597 13.9695 72.6594 10.232 81.8016 8.89116C86.3067 8.23038 90.5669 8.18927 94.0442 8.72396C97.6435 9.27745 99.8497 10.3594 100.881 11.4173C101.911 12.4752 102.965 14.7402 103.504 18.4362C104.024 22.0065 103.985 26.3811 103.341 31.007C102.035 40.3938 98.3947 49.8399 93.149 55.2259L66.2942 82.8002C61.1821 88.0494 52.7475 88.0495 47.6352 82.8005V82.8005C46.0461 81.1686 43.4698 81.1686 41.8808 82.8005C40.2918 84.4315 40.2918 87.077 41.8808 88.7089L54.0877 101.243C55.6768 102.874 58.253 102.874 59.842 101.243V101.243C62.0814 98.9432 65.8956 99.4096 67.515 102.181L73.8203 112.971C74.465 114.075 75.5687 114.811 76.8123 114.969C78.0557 115.126 79.3008 114.685 80.1862 113.776L96.4619 97.0647C97.3677 96.1347 97.7941 94.8212 97.6134 93.5193L94.8337 73.5423C94.2016 68.9996 95.704 64.4198 98.9041 61.1343V61.1343C105.865 53.9861 109.956 42.5426 111.396 32.1887C112.126 26.9443 112.214 21.7359 111.552 17.1986C110.908 12.7869 109.469 8.41964 106.634 5.50872C103.8 2.59789 99.5462 1.12093 95.2494 0.46025C90.8305 -0.219237 85.7582 -0.129838 80.6501 0.619312C70.5667 2.09834 59.4216 6.29876 52.4601 13.4465V13.4465C49.2747 16.7175 44.7135 18.262 40.1961 17.5994L20.92 14.7719C19.6522 14.5859 18.3731 15.0237 17.4675 15.9536L1.1918 32.6651C0.305812 33.5749 -0.122572 34.853 0.0305174 36.1299C0.183615 37.4067 0.901104 38.54 1.97552 39.202L12.4178 45.6351C15.2048 47.3521 15.6826 51.2096 13.3986 53.5547V53.5547C12.6356 54.3382 12.2069 55.4009 12.2069 56.509C12.2069 57.617 12.6356 58.6797 13.3986 59.4632L25.6055 71.9969C27.1945 73.6286 29.7708 73.6286 31.3597 71.9969C32.9488 70.3654 32.9488 67.7201 31.3597 66.0885L27.2908 61.9106C24.3632 58.9046 24.3632 54.1134 27.2908 51.1074V51.1074L51.7044 26.0398ZM85.0279 96.9882C81.5527 100.557 75.6335 99.8328 73.1204 95.5323V95.5323C71.4104 92.6061 71.8637 88.8984 74.2284 86.4704L75.8958 84.7583C80.2702 80.2666 87.8969 82.7682 88.7611 88.9782V88.9782C89.082 91.2839 88.3195 93.6084 86.6953 95.2761L85.0279 96.9882ZM18.6423 39.7254C21.6468 41.5763 25.5334 41.095 27.9955 38.5669L29.8973 36.6142C34.1898 32.2066 31.6787 24.7906 25.5914 23.8977V23.8977C23.1995 23.5469 20.7845 24.3646 19.0978 26.0965L17.1961 28.0491C13.8288 31.5066 14.5332 37.1939 18.6423 39.7254V39.7254ZM15.084 80.3522C16.673 78.7212 16.673 76.0757 15.084 74.4442C13.495 72.8126 10.9186 72.8126 9.32963 74.4442L1.1918 82.7997C-0.397224 84.4315 -0.397224 87.077 1.1918 88.7081C2.78081 90.3399 5.35714 90.3399 6.94614 88.7081L15.084 80.3522ZM27.2909 92.8868C28.8799 91.2549 28.88 88.6095 27.291 86.9784C25.702 85.3465 23.1257 85.3465 21.5366 86.9784L5.26071 103.689C3.67171 105.321 3.67169 107.967 5.26071 109.598C6.8497 111.23 9.42598 111.229 11.015 109.598L27.2909 92.8868ZM39.4975 105.42C41.0865 103.789 41.0865 101.143 39.4975 99.5113C37.9085 97.8802 35.3322 97.8802 33.7432 99.5113L25.6053 107.867C24.0163 109.499 24.0163 112.144 25.6053 113.776C27.1943 115.407 29.7707 115.407 31.3597 113.776L39.4975 105.42ZM73.2403 50.2321C78.8533 50.2321 83.4031 45.5603 83.4031 39.7973C83.4031 34.0342 78.8533 29.3623 73.2403 29.3623C67.6276 29.3623 63.0776 34.0342 63.0776 39.7973C63.0776 45.5603 67.6276 50.2321 73.2403 50.2321Z" fill="url(#paint0_linear_84_5)"/>
<defs>
<linearGradient id="paint0_linear_84_5" x1="112" y1="115" x2="112" y2="0" gradientUnits="userSpaceOnUse">
<stop stop-color="#C7EAFD"/>
<stop offset="1" stop-color="#E8198B"/>
</linearGradient>
</defs>
</svg>
